<svg width="26" height="26" viewBox="0 0 26 26" fill="none" xmlns="http://www.w3.org/2000/svg">
<rect width="26" height="26" rx="5.2" fill="#7BA2F5"/>
<path d="M5.7998 5.8C5.7998 4.81 6.6098 4 7.5998 4H18.3998C18.8772 4 19.335 4.18964 19.6726 4.52721C20.0102 4.86477 20.1998 5.32261 20.1998 5.8V20.2C20.1998 20.6774 20.0102 21.1352 19.6726 21.4728C19.335 21.8104 18.8772 22 18.3998 22H7.5998C7.12241 22 6.66458 21.8104 6.32701 21.4728C5.98945 21.1352 5.7998 20.6774 5.7998 20.2V5.8ZM8.4998 6.7V8.5H17.4998V6.7H8.4998ZM8.4998 10.3V12.1H10.2998V10.3H8.4998ZM12.0998 10.3V12.1H13.8998V10.3H12.0998ZM15.6998 10.3V12.1H17.4998V10.3H15.6998ZM8.4998 13.9V15.7H10.2998V13.9H8.4998ZM12.0998 13.9V15.7H13.8998V13.9H12.0998ZM15.6998 13.9V19.3H17.4998V13.9H15.6998ZM8.4998 17.5V19.3H10.2998V17.5H8.4998ZM12.0998 17.5V19.3H13.8998V17.5H12.0998Z" fill="white"/>
</svg>
