<svg width="18" height="22" viewBox="0 0 18 22" fill="none" xmlns="http://www.w3.org/2000/svg">
<path d="M0.200195 2.2C0.200195 0.99 1.1902 0 2.4002 0H15.6002C16.1837 0 16.7432 0.231785 17.1558 0.644365C17.5684 1.05695 17.8002 1.61652 17.8002 2.2V19.8C17.8002 20.3835 17.5684 20.9431 17.1558 21.3556C16.7432 21.7682 16.1837 22 15.6002 22H2.4002C1.81672 22 1.25714 21.7682 0.84456 21.3556C0.43198 20.9431 0.200195 20.3835 0.200195 19.8V2.2ZM3.5002 3.3V5.5H14.5002V3.3H3.5002ZM3.5002 7.7V9.9H5.70019V7.7H3.5002ZM7.90019 7.7V9.9H10.1002V7.7H7.90019ZM12.3002 7.7V9.9H14.5002V7.7H12.3002ZM3.5002 12.1V14.3H5.70019V12.1H3.5002ZM7.90019 12.1V14.3H10.1002V12.1H7.90019ZM12.3002 12.1V18.7H14.5002V12.1H12.3002ZM3.5002 16.5V18.7H5.70019V16.5H3.5002ZM7.90019 16.5V18.7H10.1002V16.5H7.90019Z" fill="#182338"/>
</svg>
