<svg width="20" height="20" viewBox="0 0 20 20" fill="none" xmlns="http://www.w3.org/2000/svg">
<path d="M10.0002 0.833374C4.94566 0.833374 0.833496 4.94554 0.833496 10C0.833496 15.0545 4.94566 19.1667 10.0002 19.1667C15.0547 19.1667 19.1668 15.0545 19.1668 10C19.1668 4.94554 15.0547 0.833374 10.0002 0.833374ZM10.9168 14.5055V15.5H9.0835V14.51C6.93941 14.1736 6.3335 12.6749 6.3335 11.8334H8.16683C8.17691 11.9645 8.31258 12.75 10.0002 12.75C11.2652 12.75 11.8335 12.2138 11.8335 11.8334C11.8335 11.5364 11.8335 10.9167 10.0002 10.9167C6.81016 10.9167 6.3335 9.19337 6.3335 8.16671C6.3335 6.98604 7.27675 5.79804 9.0835 5.49462V4.51104H10.9168V5.52762C12.5063 5.90346 13.1168 7.22621 13.1168 8.16671H12.2002L11.2835 8.18321C11.2707 7.83487 11.0864 7.25004 10.0002 7.25004C8.80941 7.25004 8.16683 7.72304 8.16683 8.16671C8.16683 8.50954 8.16683 9.08337 10.0002 9.08337C13.1902 9.08337 13.6668 10.8067 13.6668 11.8334C13.6668 13.014 12.7236 14.202 10.9168 14.5055Z" fill="#182338"/>
</svg>
