<svg width="20" height="20" viewBox="0 0 20 20" fill="none" xmlns="http://www.w3.org/2000/svg">
<path fill-rule="evenodd" clip-rule="evenodd" d="M0.833008 9.99992C0.833008 4.94542 4.94517 0.833252 9.99967 0.833252C12.273 0.833252 14.3558 1.66512 15.9595 3.04045L12.5055 6.49448C12.153 6.06055 11.6346 5.69734 10.9163 5.5275V4.51092H9.08301V5.4945C7.27626 5.79792 6.33301 6.98592 6.33301 8.16658C6.33301 8.97278 6.62693 10.2086 8.2978 10.7021L7.16669 11.8333H6.33301C6.33301 12.0396 6.36943 12.2854 6.45602 12.5439L3.0402 15.9597C1.66488 14.356 0.833008 12.2733 0.833008 9.99992ZM4.49955 17.3288C6.03265 18.4823 7.93775 19.1666 9.99967 19.1666C15.0542 19.1666 19.1663 15.0544 19.1663 9.99992C19.1663 7.938 18.482 6.03289 17.3286 4.49979L12.2973 9.53106C13.4453 10.1122 13.6663 11.1342 13.6663 11.8333C13.6663 13.0139 12.7231 14.2019 10.9163 14.5053V15.4999H9.08301V14.5099C8.55065 14.4264 8.11312 14.2712 7.75615 14.0722L4.49955 17.3288ZM9.16134 12.667C9.38622 12.7184 9.66185 12.7499 9.99967 12.7499C11.2647 12.7499 11.833 12.2137 11.833 11.8333C11.833 11.5921 11.833 11.1384 10.8522 10.9762L9.16134 12.667ZM9.91708 9.08285L11.195 7.80492C11.0614 7.5216 10.74 7.24992 9.99967 7.24992C8.80892 7.24992 8.16634 7.72292 8.16634 8.16658C8.16634 8.50419 8.16634 9.06581 9.91708 9.08285Z" fill="#182338"/>
</svg>
