<?xml version="1.0" encoding="utf-8"?>
<!-- Generator: Adobe Illustrator 27.0.0, SVG Export Plug-In . SVG Version: 6.00 Build 0)  -->
<svg version="1.1" id="Layer_1" xmlns="http://www.w3.org/2000/svg" xmlns:xlink="http://www.w3.org/1999/xlink" x="0px" y="0px"
	 viewBox="0 0 380 120" style="enable-background:new 0 0 380 120;" xml:space="preserve">
<style type="text/css">
	.st0{fill:#4874FF;}
</style>
<g>
	<path d="M33.7,88.7c-2.7-2.6-4-6.1-4-10.5c0-0.6,0.1-1.5,0.2-2.7l3.9-31c0.6-5.2,2.7-9.3,6.1-12.4c3.5-3.1,7.7-4.6,12.8-4.6
		c4.6,0,8.2,1.3,10.9,3.8c2.7,2.5,4,6,4,10.5c0,0.6-0.1,1.5-0.2,2.7l-0.2,1.1c0,0.3-0.1,0.6-0.4,0.8c-0.2,0.2-0.5,0.4-0.8,0.4
		l-8.1,0.3c-0.7,0-1.1-0.4-1-1.1l0.3-2.3c0.1-0.3,0.1-0.7,0.1-1.3c0-1.8-0.5-3.3-1.5-4.3c-1-1.1-2.4-1.6-4.2-1.6
		c-1.9,0-3.5,0.7-4.8,2s-2.1,3.1-2.4,5.2l-4,32.5c-0.1,0.3-0.1,0.7-0.1,1.3c0,1.8,0.5,3.3,1.5,4.3c1,1.1,2.4,1.6,4.1,1.6
		c2,0,3.6-0.7,5-2c1.3-1.3,2.2-3.1,2.5-5.2l0.3-2.3c0-0.3,0.1-0.6,0.4-0.8c0.2-0.2,0.5-0.3,0.8-0.3l8.2,0.4c0.7,0,1,0.4,1,1.1
		l-0.2,1.1c-0.6,5.2-2.7,9.3-6.2,12.4c-3.5,3.1-7.8,4.7-12.9,4.7C39.9,92.5,36.3,91.2,33.7,88.7z"/>
	<path d="M93.5,90.9l-4.3-26.1c0-0.1,0-0.1-0.1-0.2c-0.1-0.1-0.2-0.1-0.3-0.1h-4.8c-0.3,0-0.5,0.2-0.5,0.5l-3.2,25.8
		c-0.1,0.3-0.2,0.6-0.4,0.8c-0.2,0.2-0.5,0.3-0.8,0.3h-8.2c-0.7,0-1-0.4-1-1.1l7.6-61.5c0.1-0.3,0.2-0.6,0.5-0.8
		c0.2-0.2,0.5-0.3,0.8-0.3h16.7c4.3,0,7.7,1.4,10.2,4.2s3.7,6.6,3.7,11.2c0,0.6-0.1,1.6-0.2,3.1c-0.5,3.8-1.6,7-3.4,9.7
		c-1.8,2.7-4,4.8-6.7,6.2c-0.2,0.1-0.4,0.2-0.4,0.5l5.3,27.4v0.4c0,0.6-0.3,0.9-1,0.9h-8.6C94,91.8,93.5,91.5,93.5,90.9z M86.8,37.7
		l-2.3,18.1c0,0.3,0.1,0.5,0.4,0.5h5.5c2.4,0,4.4-1,6-3.1s2.4-4.9,2.4-8.3c0-2.4-0.6-4.2-1.7-5.5c-1.1-1.3-2.6-2-4.5-2h-5.4
		C87,37.3,86.8,37.4,86.8,37.7z"/>
	<path d="M136,90.8l-0.5-9.5c0-0.3-0.2-0.5-0.6-0.5h-13c-0.3,0-0.5,0.2-0.6,0.5l-2.9,9.5c-0.2,0.7-0.6,1-1.3,1H109
		c-0.8,0-1.1-0.4-0.8-1.2L129,29.1c0.2-0.7,0.6-1,1.3-1h9.5c0.7,0,1,0.3,1,1l5.6,61.5v0.2c0,0.7-0.4,1-1.1,1h-8.4
		C136.4,91.8,136,91.5,136,90.8z M124.7,72.5h9.8c0.4,0,0.6-0.2,0.6-0.5l-1.7-28.7c0-0.2-0.1-0.3-0.2-0.3c-0.1,0-0.2,0.1-0.4,0.3
		L124.2,72C124,72.4,124.2,72.5,124.7,72.5z"/>
	<path d="M190,36.9c-0.2,0.2-0.5,0.3-0.8,0.3H170c-0.3,0-0.5,0.2-0.5,0.5l-2.2,17.2c0,0.3,0.2,0.5,0.5,0.5h11.3
		c0.3,0,0.6,0.1,0.7,0.3c0.2,0.2,0.2,0.5,0.2,0.8l-0.9,7c0,0.3-0.1,0.6-0.4,0.8c-0.2,0.2-0.5,0.3-0.8,0.3h-11.3
		c-0.3,0-0.5,0.2-0.5,0.5L163,90.8c-0.1,0.3-0.2,0.6-0.4,0.8c-0.2,0.2-0.5,0.3-0.8,0.3h-8.2c-0.7,0-1-0.4-1-1.1l7.6-61.5
		c0.1-0.3,0.2-0.6,0.5-0.8c0.2-0.2,0.5-0.3,0.8-0.3h28.9c0.3,0,0.6,0.1,0.7,0.3c0.2,0.2,0.2,0.5,0.2,0.8l-0.8,6.9
		C190.5,36.5,190.2,36.7,190,36.9z"/>
	<path d="M230.1,28.5c0.2,0.2,0.2,0.5,0.2,0.8l-0.8,6.9c-0.1,0.3-0.2,0.6-0.4,0.8c-0.2,0.2-0.5,0.3-0.8,0.3h-11.3
		c-0.2,0-0.4,0.2-0.6,0.5l-6.5,53c-0.1,0.3-0.2,0.6-0.4,0.8c-0.2,0.2-0.5,0.3-0.8,0.3h-8.3c-0.3,0-0.6-0.1-0.7-0.3
		c-0.2-0.2-0.2-0.5-0.2-0.8l6.6-53c0-0.3-0.2-0.5-0.5-0.5H195c-0.3,0-0.6-0.1-0.7-0.3c-0.2-0.2-0.2-0.5-0.2-0.8l0.8-6.9
		c0.1-0.3,0.2-0.6,0.4-0.8c0.2-0.2,0.5-0.3,0.8-0.3h33.3C229.6,28.2,230,28.3,230.1,28.5z"/>
	<path class="st0" d="M259.8,87.2c-3.6,3.1-7.9,4.6-13.2,4.6h-15.6c-0.7,0-1-0.4-1-1.1l7.6-61.5c0.1-0.3,0.2-0.6,0.5-0.8
		c0.2-0.2,0.5-0.3,0.8-0.3h14.1c5.1,0,9.1,1.2,11.9,3.5s4.3,5.9,4.3,10.5c0,0.7-0.1,1.7-0.2,3c-0.8,6.2-3.5,10.7-8.2,13.4
		c-0.4,0.2-0.5,0.4-0.3,0.5c3.8,2.8,5.7,6.8,5.7,12.2c0,0.5-0.1,1.5-0.2,2.8C265.4,79.8,263.2,84.1,259.8,87.2z M252.9,80.1
		c1.6-1.7,2.6-4.1,3-7.2c0.1-0.5,0.1-1.2,0.1-2.1c0-2.5-0.6-4.4-1.7-5.9c-1.1-1.4-2.7-2.1-4.8-2.1h-5.2c-0.4,0-0.6,0.2-0.6,0.5
		l-2.3,18.9c-0.1,0.3,0,0.5,0.4,0.5h5.2C249.4,82.6,251.4,81.8,252.9,80.1z M247,37.7l-2.1,16.9c-0.1,0.3,0,0.5,0.4,0.5h4.5
		c2.5,0,4.5-0.8,6-2.3c1.6-1.5,2.5-3.7,2.9-6.5c0.1-0.4,0.1-1,0.1-1.8c0-2.3-0.6-4.1-1.7-5.4c-1.2-1.3-2.9-1.9-5.1-1.9h-4.5
		C247.1,37.3,247,37.4,247,37.7z"/>
	<path class="st0" d="M308.4,36.9c-0.2,0.2-0.5,0.3-0.8,0.3h-19.3c-0.3,0-0.5,0.2-0.5,0.5l-2.2,17.2c0,0.3,0.2,0.5,0.5,0.5h11.4
		c0.3,0,0.6,0.1,0.7,0.3c0.2,0.2,0.2,0.5,0.2,0.8l-0.9,7c0,0.3-0.1,0.6-0.4,0.8c-0.2,0.2-0.5,0.3-0.8,0.3h-11.4
		c-0.3,0-0.5,0.2-0.5,0.5l-2.2,17.3c0,0.3,0.2,0.5,0.5,0.5h19.2c0.3,0,0.6,0.1,0.7,0.3c0.2,0.2,0.2,0.5,0.2,0.8l-0.8,6.9
		c-0.1,0.3-0.2,0.6-0.4,0.8c-0.2,0.2-0.5,0.3-0.8,0.3h-29c-0.7,0-1-0.4-1-1.1l7.6-61.5c0.1-0.3,0.2-0.6,0.5-0.8
		c0.2-0.2,0.5-0.3,0.8-0.3h29c0.3,0,0.6,0.1,0.7,0.3c0.2,0.2,0.2,0.5,0.2,0.8l-0.8,6.9C308.6,36.5,308.6,36.7,308.4,36.9z"/>
	<path class="st0" d="M350.1,28.5c0.2,0.2,0.2,0.5,0.2,0.8l-0.8,6.9c-0.1,0.3-0.2,0.6-0.4,0.8c-0.2,0.2-0.5,0.3-0.8,0.3h-11.3
		c-0.2,0-0.4,0.2-0.6,0.5l-6.5,53c-0.1,0.3-0.2,0.6-0.4,0.8c-0.2,0.2-0.5,0.3-0.8,0.3h-8.3c-0.3,0-0.6-0.1-0.7-0.3
		c-0.2-0.2-0.2-0.5-0.2-0.8l6.6-53c0-0.3-0.2-0.5-0.5-0.5H315c-0.3,0-0.6-0.1-0.7-0.3c-0.2-0.2-0.2-0.5-0.2-0.8l0.8-6.9
		c0.1-0.3,0.2-0.6,0.4-0.8c0.2-0.2,0.5-0.3,0.8-0.3h33.3C349.8,28.2,350,28.3,350.1,28.5z"/>
</g>
</svg>
