<svg width="22" height="22" viewBox="0 0 22 22" fill="none" xmlns="http://www.w3.org/2000/svg">
<path d="M19.25 16.5H2.75C2.20299 16.5 1.67839 16.2827 1.29159 15.8959C0.904798 15.5091 0.6875 14.9845 0.6875 14.4375V3.4375C0.6875 2.89049 0.904798 2.36589 1.29159 1.97909C1.67839 1.5923 2.20299 1.375 2.75 1.375H19.25C19.797 1.375 20.3216 1.5923 20.7084 1.97909C21.0952 2.36589 21.3125 2.89049 21.3125 3.4375V14.4375C21.3125 14.9845 21.0952 15.5091 20.7084 15.8959C20.3216 16.2827 19.797 16.5 19.25 16.5ZM2.75 2.75C2.56766 2.75 2.3928 2.82243 2.26386 2.95136C2.13493 3.0803 2.0625 3.25516 2.0625 3.4375V14.4375C2.0625 14.6198 2.13493 14.7947 2.26386 14.9236C2.3928 15.0526 2.56766 15.125 2.75 15.125H19.25C19.4323 15.125 19.6072 15.0526 19.7361 14.9236C19.8651 14.7947 19.9375 14.6198 19.9375 14.4375V3.4375C19.9375 3.25516 19.8651 3.0803 19.7361 2.95136C19.6072 2.82243 19.4323 2.75 19.25 2.75H2.75Z" fill="#182338"/>
<path d="M14.4376 20.6251H7.56258C7.46224 20.6264 7.36284 20.6057 7.27136 20.5645C7.17987 20.5232 7.09851 20.4625 7.03299 20.3865C6.96747 20.3105 6.91939 20.2211 6.89211 20.1245C6.86483 20.028 6.85901 19.9266 6.87508 19.8276L7.56258 15.7026C7.58893 15.5399 7.67285 15.3921 7.79903 15.2861C7.92522 15.1801 8.08529 15.1229 8.25008 15.1251H13.7501C13.9149 15.1229 14.0749 15.1801 14.2011 15.2861C14.3273 15.3921 14.4112 15.5399 14.4376 15.7026L15.1251 19.8276C15.1411 19.9266 15.1353 20.028 15.108 20.1245C15.0808 20.2211 15.0327 20.3105 14.9672 20.3865C14.9016 20.4625 14.8203 20.5232 14.7288 20.5645C14.6373 20.6057 14.5379 20.6264 14.4376 20.6251ZM8.37383 19.2501H13.6263L13.1657 16.5001H8.83445L8.37383 19.2501Z" fill="#182338"/>
<path d="M16.5 20.625H5.5C5.31766 20.625 5.1428 20.5526 5.01386 20.4236C4.88493 20.2947 4.8125 20.1198 4.8125 19.9375C4.8125 19.7552 4.88493 19.5803 5.01386 19.4514C5.1428 19.3224 5.31766 19.25 5.5 19.25H16.5C16.6823 19.25 16.8572 19.3224 16.9861 19.4514C17.1151 19.5803 17.1875 19.7552 17.1875 19.9375C17.1875 20.1198 17.1151 20.2947 16.9861 20.4236C16.8572 20.5526 16.6823 20.625 16.5 20.625Z" fill="#182338"/>
<path d="M20.625 13.0625H1.375C1.19266 13.0625 1.0178 12.9901 0.888864 12.8611C0.759933 12.7322 0.6875 12.5573 0.6875 12.375C0.6875 12.1927 0.759933 12.0178 0.888864 11.8889C1.0178 11.7599 1.19266 11.6875 1.375 11.6875H20.625C20.8073 11.6875 20.9822 11.7599 21.1111 11.8889C21.2401 12.0178 21.3125 12.1927 21.3125 12.375C21.3125 12.5573 21.2401 12.7322 21.1111 12.8611C20.9822 12.9901 20.8073 13.0625 20.625 13.0625Z" fill="#182338"/>
</svg>
