<svg width="18" height="18" viewBox="0 0 18 18" fill="none" xmlns="http://www.w3.org/2000/svg">
<path d="M16.3125 1.125C16.3993 1.125 16.5669 1.14694 16.7102 1.28981C16.8536 1.43367 16.875 1.60073 16.875 1.6875C16.875 1.77427 16.8536 1.94133 16.7102 2.08519L16.0796 2.71575L15.75 3.04538V3.51127V5.625H14.625H13.5V6.75V7.875H12.375H11.25V9V10.125H11.1368H9.76134L10.0343 11.473C10.0942 11.7707 10.125 12.0739 10.125 12.375C10.125 14.8568 8.10633 16.875 5.625 16.875C3.14367 16.875 1.125 14.8568 1.125 12.375C1.125 9.89325 3.14367 7.875 5.625 7.875C6.32208 7.875 7.01592 8.05303 7.68713 8.40347L8.41936 8.78583L9.00323 8.20139L15.9147 1.28995C16.0581 1.14694 16.2257 1.125 16.3125 1.125ZM5.625 14.625C6.86588 14.625 7.875 13.6153 7.875 12.375C7.875 11.1347 6.86588 10.125 5.625 10.125C4.38412 10.125 3.375 11.1347 3.375 12.375C3.375 13.6153 4.38412 14.625 5.625 14.625ZM16.3125 0C15.8808 0 15.4489 0.164812 15.1194 0.494438L8.20786 7.40588C7.43119 7.00045 6.56156 6.75 5.625 6.75C2.51859 6.75 0 9.26803 0 12.375C0 15.482 2.51859 18 5.625 18C8.73141 18 11.25 15.482 11.25 12.375C11.25 11.9894 11.2105 11.6137 11.1368 11.25H12.375V9H14.625V6.75H16.875V3.51127L17.5056 2.8807C18.1648 2.22145 18.1648 1.15369 17.5056 0.494438C17.1761 0.164812 16.7442 0 16.3125 0ZM5.625 13.5C5.00372 13.5 4.5 12.9968 4.5 12.375C4.5 11.7532 5.00372 11.25 5.625 11.25C6.24628 11.25 6.75 11.7532 6.75 12.375C6.75 12.9968 6.24628 13.5 5.625 13.5Z" fill="#182338"/>
</svg>
