<svg width="22" height="22" viewBox="0 0 22 22" fill="none" xmlns="http://www.w3.org/2000/svg">
<path d="M7.17398 18.1739V19.1304H4.30441C3.92388 19.1304 3.55894 18.9792 3.28987 18.7102C3.02079 18.4411 2.86963 18.0761 2.86963 17.6956V14.826H3.82615V17.6956C3.82615 17.8225 3.87654 17.9441 3.96623 18.0338C4.05592 18.1235 4.17757 18.1739 4.30441 18.1739H7.17398Z" fill="#182338"/>
<path d="M19.1305 14.826V17.6956C19.1305 18.0761 18.9794 18.4411 18.7103 18.7102C18.4412 18.9792 18.0763 19.1304 17.6957 19.1304H14.8262V18.1739H17.6957C17.8226 18.1739 17.9442 18.1235 18.0339 18.0338C18.1236 17.9441 18.174 17.8225 18.174 17.6956V14.826H19.1305Z" fill="#182338"/>
<path d="M19.1305 4.30429V7.17385H18.174V4.30429C18.174 4.17745 18.1236 4.0558 18.0339 3.96611C17.9442 3.87642 17.8226 3.82603 17.6957 3.82603H14.8262V2.86951H17.6957C18.0763 2.86951 18.4412 3.02067 18.7103 3.28974C18.9794 3.55882 19.1305 3.92376 19.1305 4.30429Z" fill="#182338"/>
<path d="M7.17398 2.86951V3.82603H4.30441C4.17757 3.82603 4.05592 3.87642 3.96623 3.96611C3.87654 4.0558 3.82615 4.17745 3.82615 4.30429V7.17385H2.86963V4.30429C2.86963 3.92376 3.02079 3.55882 3.28987 3.28974C3.55894 3.02067 3.92388 2.86951 4.30441 2.86951H7.17398Z" fill="#182338"/>
<path d="M7.12986 6H6V13.9167H7.12986V6Z" fill="#182338"/>
<path d="M7.12986 14.75H6V16H7.12986V14.75Z" fill="#182338"/>
<path d="M8.2941 6H7.91748V16H8.2941V6Z" fill="#182338"/>
<path d="M10.2124 6H9.08252V16H10.2124V6Z" fill="#182338"/>
<path d="M11.3766 6H11V16H11.3766V6Z" fill="#182338"/>
<path d="M13.293 6H12.1631V16H13.293V6Z" fill="#182338"/>
<path d="M14.4591 6H14.0825V16H14.4591V6Z" fill="#182338"/>
<path d="M16.0003 6H15.2471V16H16.0003V6Z" fill="#182338"/>
</svg>
