<svg width="20" height="20" viewBox="0 0 20 20" fill="none" xmlns="http://www.w3.org/2000/svg">
<path d="M9.99984 11.8334C12.5311 11.8334 14.5832 9.37094 14.5832 6.33337C14.5832 3.29581 12.5311 0.833374 9.99984 0.833374C7.46853 0.833374 5.4165 3.29581 5.4165 6.33337C5.4165 9.37094 7.46853 11.8334 9.99984 11.8334Z" fill="#182338"/>
<path d="M18.9834 16.5084C18.1584 14.8584 16.6 13.4834 14.5834 12.6584C14.0334 12.4751 13.3917 12.4751 12.9334 12.7501C12.0167 13.3001 11.1 13.5751 10 13.5751C8.90003 13.5751 7.98337 13.3001 7.0667 12.7501C6.60837 12.5667 5.9667 12.4751 5.4167 12.7501C3.40004 13.5751 1.8417 14.9501 1.0167 16.6001C0.375036 17.7917 1.38337 19.1667 2.75837 19.1667H17.2417C18.6167 19.1667 19.625 17.7917 18.9834 16.5084Z" fill="#182338"/>
</svg>
